<svg data-v-423bf9ae="" xmlns="http://www.w3.org/2000/svg" viewBox="0 0 400 107" class="iconLeft"><!----><!----><!----><g data-v-423bf9ae="" id="0ffec9db-3903-4a2b-a2e8-504c7c436758" fill="#ffffff" transform="matrix(4.724409165004871,0,0,4.724409165004871,100.27213329845426,3.829297828544206)"><path d="M4.28 14.11L4.28 14.11Q3.14 14.11 2.26 13.66L2.26 13.66L2.26 13.66Q1.39 13.22 0.90 12.40L0.90 12.40L0.90 12.40Q0.42 11.58 0.42 10.50L0.42 10.50L0.42 7.67L0.42 7.67Q0.42 6.61 0.90 5.80L0.90 5.80L0.90 5.80Q1.39 4.98 2.26 4.54L2.26 4.54L2.26 4.54Q3.14 4.09 4.28 4.09L4.28 4.09L4.28 4.09Q5.43 4.09 6.31 4.51L6.31 4.51L6.31 4.51Q7.18 4.93 7.67 5.69L7.67 5.69L7.67 5.69Q8.15 6.45 8.15 7.46L8.15 7.46L8.15 7.46Q8.15 7.59 7.90 7.62L7.90 7.62L5.80 7.76L5.73 7.76L5.73 7.76Q5.52 7.76 5.52 7.69L5.52 7.69L5.52 7.60L5.52 7.60Q5.52 7.03 5.18 6.68L5.18 6.68L5.18 6.68Q4.84 6.34 4.28 6.34L4.28 6.34L4.28 6.34Q3.72 6.34 3.39 6.68L3.39 6.68L3.39 6.68Q3.05 7.03 3.05 7.60L3.05 7.60L3.05 10.61L3.05 10.61Q3.05 11.17 3.39 11.52L3.39 11.52L3.39 11.52Q3.72 11.86 4.28 11.86L4.28 11.86L4.28 11.86Q4.84 11.86 5.18 11.52L5.18 11.52L5.18 11.52Q5.52 11.17 5.52 10.61L5.52 10.61L5.52 10.61Q5.52 10.54 5.59 10.49L5.59 10.49L5.59 10.49Q5.67 10.44 5.80 10.46L5.80 10.46L7.90 10.57L7.90 10.57Q8.15 10.58 8.15 10.64L8.15 10.64L8.15 10.71L8.15 10.71Q8.15 11.72 7.67 12.49L7.67 12.49L7.67 12.49Q7.18 13.26 6.31 13.69L6.31 13.69L6.31 13.69Q5.43 14.11 4.28 14.11L4.28 14.11ZM13.08 6.62L13.08 6.62Q13.51 6.62 13.79 6.78L13.79 6.78L13.79 6.78Q13.97 6.87 13.93 7.11L13.93 7.11L13.59 9.17L13.59 9.17Q13.55 9.41 13.29 9.35L13.29 9.35L13.29 9.35Q13.13 9.31 12.91 9.31L12.91 9.31L12.91 9.31Q12.71 9.31 12.50 9.35L12.50 9.35L12.50 9.35Q12.14 9.42 11.88 9.65L11.88 9.65L11.88 9.65Q11.62 9.88 11.62 10.28L11.62 10.28L11.62 13.73L11.62 13.73Q11.62 14 11.35 14L11.35 14L9.25 14L9.25 14Q8.99 14 8.99 13.73L8.99 13.73L8.99 6.99L8.99 6.99Q8.99 6.72 9.25 6.72L9.25 6.72L11.35 6.72L11.35 6.72Q11.62 6.72 11.62 6.99L11.62 6.99L11.62 7.18L11.62 7.18Q11.62 7.25 11.65 7.28L11.65 7.28L11.65 7.28Q11.69 7.31 11.73 7.25L11.73 7.25L11.73 7.25Q12.25 6.62 13.08 6.62L13.08 6.62ZM14.69 16.79L14.69 16.79Q14.59 16.79 14.59 16.52L14.59 16.52L14.59 14.90L14.59 14.90Q14.59 14.77 14.62 14.70L14.62 14.70L14.62 14.70Q14.64 14.63 14.67 14.63L14.67 14.63L14.74 14.63L14.74 14.63Q15.65 14.63 16.04 14.53L16.04 14.53L16.04 14.53Q16.42 14.42 16.48 14.07L16.48 14.07L16.48 14.07Q16.49 14.01 16.46 13.93L16.46 13.93L14.29 7.03L14.29 7.03Q14.28 6.99 14.28 6.93L14.28 6.93L14.28 6.93Q14.28 6.72 14.52 6.72L14.52 6.72L16.76 6.72L16.76 6.72Q17.01 6.72 17.05 6.96L17.05 6.96L17.75 10.16L17.75 10.16Q17.77 10.23 17.82 10.23L17.82 10.23L17.82 10.23Q17.86 10.22 17.89 10.15L17.89 10.15L18.55 6.96L18.55 6.96Q18.59 6.72 18.84 6.72L18.84 6.72L21.10 6.72L21.10 6.72Q21.24 6.72 21.30 6.80L21.30 6.80L21.30 6.80Q21.36 6.89 21.32 7.03L21.32 7.03L19.05 14.03L19.05 14.03Q18.69 15.11 18.28 15.67L18.28 15.67L18.28 15.67Q17.88 16.23 17.07 16.51L17.07 16.51L17.07 16.51Q16.27 16.79 14.78 16.79L14.78 16.79L14.69 16.79ZM29.13 8.82L29.13 8.82Q29.34 9.52 29.34 10.39L29.34 10.39L29.34 10.39Q29.34 11.40 29.04 12.18L29.04 12.18L29.04 12.18Q28.70 13.03 27.99 13.57L27.99 13.57L27.99 13.57Q27.27 14.11 26.28 14.11L26.28 14.11L26.28 14.11Q25.28 14.11 24.81 13.52L24.81 13.52L24.81 13.52Q24.75 13.47 24.72 13.49L24.72 13.49L24.72 13.49Q24.68 13.51 24.68 13.58L24.68 13.58L24.68 16.25L24.68 16.25Q24.68 16.52 24.42 16.52L24.42 16.52L22.32 16.52L22.32 16.52Q22.05 16.52 22.05 16.25L22.05 16.25L22.05 6.99L22.05 6.99Q22.05 6.72 22.32 6.72L22.32 6.72L24.42 6.72L24.42 6.72Q24.68 6.72 24.68 6.99L24.68 6.99L24.68 7.28L24.68 7.28Q24.68 7.35 24.72 7.36L24.72 7.36L24.72 7.36Q24.77 7.38 24.81 7.31L24.81 7.31L24.81 7.31Q25.35 6.61 26.39 6.61L26.39 6.61L26.39 6.61Q27.33 6.61 28.08 7.20L28.08 7.20L28.08 7.20Q28.83 7.80 29.13 8.82L29.13 8.82ZM26.38 11.40L26.38 11.40Q26.59 10.99 26.59 10.35L26.59 10.35L26.59 10.35Q26.59 9.72 26.38 9.32L26.38 9.32L26.38 9.32Q26.12 8.86 25.63 8.86L25.63 8.86L25.63 8.86Q25.14 8.86 24.89 9.34L24.89 9.34L24.89 9.34Q24.68 9.73 24.68 10.35L24.68 10.35L24.68 10.35Q24.68 11.02 24.91 11.42L24.91 11.42L24.91 11.42Q25.16 11.86 25.63 11.86L25.63 11.86L25.63 11.86Q26.14 11.86 26.38 11.40L26.38 11.40ZM34.71 8.55L34.71 8.55Q34.71 8.82 34.44 8.82L34.44 8.82L33.38 8.82L33.38 8.82Q33.26 8.82 33.26 8.93L33.26 8.93L33.26 11.00L33.26 11.00Q33.26 11.70 33.77 11.70L33.77 11.70L34.23 11.70L34.23 11.70Q34.50 11.70 34.50 11.97L34.50 11.97L34.50 13.66L34.50 13.66Q34.50 13.90 34.24 13.93L34.24 13.93L34.24 13.93Q33.70 13.97 33.24 13.97L33.24 13.97L33.24 13.97Q31.96 13.97 31.36 13.58L31.36 13.58L31.36 13.58Q30.76 13.19 30.74 12.10L30.74 12.10L30.74 8.93L30.74 8.93Q30.74 8.82 30.63 8.82L30.63 8.82L29.97 8.82L29.97 8.82Q29.71 8.82 29.71 8.55L29.71 8.55L29.71 6.99L29.71 6.99Q29.71 6.72 29.97 6.72L29.97 6.72L30.63 6.72L30.63 6.72Q30.74 6.72 30.74 6.61L30.74 6.61L30.74 5.03L30.74 5.03Q30.74 4.76 31.01 4.76L31.01 4.76L33.00 4.76L33.00 4.76Q33.26 4.76 33.26 5.03L33.26 5.03L33.26 6.61L33.26 6.61Q33.26 6.72 33.38 6.72L33.38 6.72L34.44 6.72L34.44 6.72Q34.71 6.72 34.71 6.99L34.71 6.99L34.71 8.55ZM38.86 14.11L38.86 14.11Q37.53 14.11 36.62 13.40L36.62 13.40L36.62 13.40Q35.70 12.68 35.41 11.47L35.41 11.47L35.41 11.47Q35.27 10.96 35.27 10.35L35.27 10.35L35.27 10.35Q35.27 9.66 35.43 9.10L35.43 9.10L35.43 9.10Q35.77 7.94 36.67 7.27L36.67 7.27L36.67 7.27Q37.58 6.61 38.88 6.61L38.88 6.61L38.88 6.61Q40.18 6.61 41.07 7.27L41.07 7.27L41.07 7.27Q41.96 7.94 42.29 9.07L42.29 9.07L42.29 9.07Q42.46 9.66 42.46 10.32L42.46 10.32L42.46 10.32Q42.46 10.85 42.35 11.38L42.35 11.38L42.35 11.38Q42.06 12.64 41.14 13.38L41.14 13.38L41.14 13.38Q40.22 14.11 38.86 14.11L38.86 14.11ZM38.86 11.86L38.86 11.86Q39.23 11.86 39.45 11.61L39.45 11.61L39.45 11.61Q39.68 11.37 39.76 10.96L39.76 10.96L39.76 10.96Q39.82 10.70 39.82 10.33L39.82 10.33L39.82 10.33Q39.82 10.01 39.75 9.69L39.75 9.69L39.75 9.69Q39.54 8.86 38.86 8.86L38.86 8.86L38.86 8.86Q38.16 8.86 37.98 9.69L37.98 9.69L37.98 9.69Q37.91 9.93 37.91 10.33L37.91 10.33L37.91 10.33Q37.91 10.70 37.97 10.96L37.97 10.96L37.97 10.96Q38.18 11.86 38.86 11.86L38.86 11.86ZM46.72 14.11L46.72 14.11Q45.53 14.11 44.65 13.53L44.65 13.53L44.65 13.53Q43.76 12.95 43.36 11.91L43.36 11.91L43.36 11.91Q43.08 11.20 43.08 10.32L43.08 10.32L43.08 10.32Q43.08 9.45 43.36 8.74L43.36 8.74L43.36 8.74Q43.75 7.74 44.65 7.17L44.65 7.17L44.65 7.17Q45.54 6.61 46.72 6.61L46.72 6.61L46.72 6.61Q47.91 6.61 48.82 7.20L48.82 7.20L48.82 7.20Q49.74 7.80 50.06 8.69L50.06 8.69L50.06 8.69Q50.18 8.99 50.19 9.17L50.19 9.17L50.19 9.20L50.19 9.20Q50.19 9.42 49.95 9.46L49.95 9.46L47.89 9.79L47.89 9.79Q47.88 9.79 47.86 9.79L47.86 9.79L47.86 9.79Q47.84 9.80 47.81 9.79L47.81 9.79L47.81 9.79Q47.63 9.79 47.60 9.62L47.60 9.62L47.54 9.42L47.54 9.42Q47.47 9.18 47.24 9.02L47.24 9.02L47.24 9.02Q47.01 8.86 46.70 8.86L46.70 8.86L46.70 8.86Q46.14 8.86 45.91 9.37L45.91 9.37L45.91 9.37Q45.74 9.72 45.74 10.33L45.74 10.33L45.74 10.33Q45.74 10.91 45.89 11.30L45.89 11.30L45.89 11.30Q46.13 11.86 46.70 11.86L46.70 11.86L46.70 11.86Q47.29 11.86 47.52 11.28L47.52 11.28L47.52 11.28Q47.53 11.24 47.54 11.22L47.54 11.22L47.54 11.22Q47.54 11.20 47.54 11.20L47.54 11.20L47.54 11.20L47.54 11.20Q47.56 11.13 47.65 11.05L47.65 11.05L47.65 11.05Q47.74 10.96 47.85 10.98L47.85 10.98L49.92 11.31L49.92 11.31Q50.19 11.35 50.15 11.61L50.15 11.61L50.15 11.61Q50.12 11.80 50.06 11.98L50.06 11.98L50.06 11.98Q49.70 13.01 48.80 13.56L48.80 13.56L48.80 13.56Q47.89 14.11 46.72 14.11L46.72 14.11ZM54.08 6.61L54.08 6.61Q55.03 6.61 55.83 6.93L55.83 6.93L55.83 6.93Q56.63 7.25 57.09 7.81L57.09 7.81L57.09 7.81Q57.55 8.37 57.55 9.03L57.55 9.03L57.55 13.73L57.55 13.73Q57.55 14 57.29 14L57.29 14L55.19 14L55.19 14Q54.92 14 54.92 13.73L54.92 13.73L54.92 13.48L54.92 13.48Q54.92 13.41 54.89 13.40L54.89 13.40L54.89 13.40Q54.85 13.38 54.80 13.44L54.80 13.44L54.80 13.44Q54.56 13.79 54.14 13.95L54.14 13.95L54.14 13.95Q53.72 14.11 53.09 14.11L53.09 14.11L53.09 14.11Q51.94 14.11 51.28 13.59L51.28 13.59L51.28 13.59Q50.62 13.06 50.62 12.05L50.62 12.05L50.62 12.05Q50.62 10.99 51.37 10.42L51.37 10.42L51.37 10.42Q52.12 9.84 53.55 9.84L53.55 9.84L54.81 9.84L54.81 9.84Q54.92 9.84 54.92 9.73L54.92 9.73L54.92 9.52L54.92 9.52Q54.92 9.23 54.70 9.04L54.70 9.04L54.70 9.04Q54.49 8.86 54.12 8.86L54.12 8.86L54.12 8.86Q53.89 8.86 53.70 8.94L53.70 8.94L53.70 8.94Q53.51 9.02 53.42 9.14L53.42 9.14L53.42 9.14Q53.34 9.25 53.28 9.30L53.28 9.30L53.28 9.30Q53.23 9.34 53.12 9.32L53.12 9.32L50.96 9.04L50.96 9.04Q50.71 9.02 50.72 8.83L50.72 8.83L50.72 8.83Q50.78 8.20 51.23 7.70L51.23 7.70L51.23 7.70Q51.69 7.20 52.43 6.90L52.43 6.90L52.43 6.90Q53.17 6.61 54.08 6.61L54.08 6.61ZM53.90 12.29L53.90 12.29Q54.35 12.29 54.63 12.05L54.63 12.05L54.63 12.05Q54.92 11.82 54.92 11.41L54.92 11.41L54.92 11.27L54.92 11.27Q54.92 11.16 54.81 11.16L54.81 11.16L54.15 11.16L54.15 11.16Q53.27 11.16 53.27 11.73L53.27 11.73L53.27 11.73Q53.27 11.98 53.43 12.14L53.43 12.14L53.43 12.14Q53.59 12.29 53.90 12.29L53.90 12.29ZM63.24 8.55L63.24 8.55Q63.24 8.82 62.97 8.82L62.97 8.82L61.91 8.82L61.91 8.82Q61.80 8.82 61.80 8.93L61.80 8.93L61.80 11.00L61.80 11.00Q61.80 11.70 62.30 11.70L62.30 11.70L62.76 11.70L62.76 11.70Q63.03 11.70 63.03 11.97L63.03 11.97L63.03 13.66L63.03 13.66Q63.03 13.90 62.78 13.93L62.78 13.93L62.78 13.93Q62.23 13.97 61.77 13.97L61.77 13.97L61.77 13.97Q60.49 13.97 59.89 13.58L59.89 13.58L59.89 13.58Q59.29 13.19 59.28 12.10L59.28 12.10L59.28 8.93L59.28 8.93Q59.28 8.82 59.16 8.82L59.16 8.82L58.51 8.82L58.51 8.82Q58.24 8.82 58.24 8.55L58.24 8.55L58.24 6.99L58.24 6.99Q58.24 6.72 58.51 6.72L58.51 6.72L59.16 6.72L59.16 6.72Q59.28 6.72 59.28 6.61L59.28 6.61L59.28 5.03L59.28 5.03Q59.28 4.76 59.54 4.76L59.54 4.76L61.53 4.76L61.53 4.76Q61.80 4.76 61.80 5.03L61.80 5.03L61.80 6.61L61.80 6.61Q61.80 6.72 61.91 6.72L61.91 6.72L62.97 6.72L62.97 6.72Q63.24 6.72 63.24 6.99L63.24 6.99L63.24 8.55Z"></path></g><!----><g data-v-423bf9ae="" id="833c9b34-648a-48d2-a4ff-63cbfd4cdc79" transform="matrix(1.0868111504448785,0,0,1.0868111504448785,-13.255261890115804,-0.23894260335429607)" stroke="none" fill="#ffffff"><g clip-rule="evenodd"><path d="M12.983 10.59l17.018 88.223-5.872-59.049 29.021-1.892-.054-9.883L64.549 1 53.622 18.977z"></path><path d="M59.389 54.548l5.16-53.541-8.74 39.716-19.612 1.045 1.57 20.462-7.766 36.583 12.057-39.899z"></path><path d="M62.8 67.182l.549-10.453-15.979 3.755-.032 11.797-17.337 26.532 21.68-27.616zM65.711 62.394l14.841-4.731 1.509-12.532-15.899 2.095zM72.07 44.502l10.988-1.417 1.581-10.278-8.079-.373L64.549 1l8.43 30.967z"></path><path d="M87.413 31.294l1.256-9.506-9.544-2.694L64.549 1l14.483 22.437-.422 7z"></path></g></g><!----></svg>